<svg xmlns="http://www.w3.org/2000/svg" width="1024" height="1024" viewBox="0 0 1024 1024"><g style="mix-blend-mode:normal;stroke-width:2;stroke-dasharray:none"><path d="M532.977 217.84c-24.111-49.514-21.588-97.889-52.231-144.872-5.601-8.587-10.299-15.17-18.049-22.137-6.557-5.895-12.946-8.168-19.64-12.42 17.59 5.699 32.057 11.439 48.407 20.401A255 255 0 0 1 593.836 164.54c53.077 103.586 23.121 222.013-46.065 308.471-4.602 5.751-10.463 12.091-14.507 18.096 13.618 50.687 10.381 109.807-.41 160.693 7.838-6.498 15.403-13.42 23.297-19.825 13.872-11.256 27.817-21.626 41.13-33.601 37.823-34.02 66.057-77.853 71.147-129.377 4.856-49.155-14.58-98.522-40.503-139.493l.353-.271c2.216 1.294 3.507 3.459 5.141 5.385 62.6 73.76 71.804 168.602 23.058 252.261a266.6 266.6 0 0 1-54.197 64.853c-12.951 11.237-26.316 21.242-39.287 32.746-55.062 48.834-90.694 120.118-88.018 194.538.685 19.049 3.639 29.81 6.765 48.069.397-12.572.64-23.489 2.692-35.978 9.136-55.637 49.203-102.722 98.793-127.68 24.452-12.307 51.671-16.894 77.002-26.8 70.241-26.346 118.009-89.768 119.35-165.324 1.781-70.692-29.237-135.712-77.016-186.66a374 374 0 0 0-37.939-35.284c-9.793-7.884-20.104-15.214-30-23.051 78.226 36.94 143.284 98.903 172.859 181.405a301.6 301.6 0 0 1-10.596 227.036c-31.539 66.551-84.467 115.199-151.724 144.156-17.361 7.475-35.139 13.455-52.694 20.418-39.177 15.538-73.857 42.899-96.811 78.608-28.346-59.028-34.826-120.406-12.847-182.779a277 277 0 0 1 65.926-103.886c17.397-17.462 34.765-29.166 52.596-45.136 44.581-39.927 74.137-90.094 80.322-150.319 3.715-36.171-3.135-71.29-17.693-104.601-.345-.79-.748-1.452-1.195-2.183.01-.213 6.533 22.157 7.106 24.767a175.9 175.9 0 0 1-9.425 106.138c-24.209 57.657-63.758 85.505-109.744 122.81-72.995 59.215-116.984 155.323-101.853 249.469 4.143 28.209 9.682 42.224 16.762 68.369-6.673-11.316-12.672-28.214-15.964-40.824A260 260 0 0 1 449.752 788a258 258 0 0 1 22.258-56.43c-4.528-10.319-9.448-22.167-14.927-31.897-14.166-25.155-36.075-44.334-55.433-65.48-36.251 54.28-54.502 114.956-41.464 180.162a205.67 205.67 0 0 0 57.951 105.843c9.97 9.798 20.804 18.457 31.727 27.153 4.574 3.642 9.167 7.888 13.673 11.348-54.267-27.31-98.75-76.403-118.021-134.188-20.166-60.465-11.709-126.689 17.045-182.833 6.179-12.064 11.921-21.728 18.956-33.281-20.274-22.435-31.625-61.528-35.564-91.203-15.306 14.115-30.804 28.068-44.525 43.723-39.355 44.901-59.752 94.077-62.17 153.511a235.14 235.14 0 0 0 62.559 168.069 312.7 312.7 0 0 0 133.691 84.777c5.906 1.938 22.448 7.251 28.012 8.005-2.633 1.071-5.811-.501-8.542-.868-103.502-13.917-197.598-74.979-237.657-174.088a254.26 254.26 0 0 1 1.013-192.175c12.664-29.805 30.267-55.845 52.256-79.568 36.801-39.703 81.852-67.066 107.712-116.263 22.903-43.57 29.83-91.228-2.232-132.741 8.76 2.125 15.309 7.985 21.107 13.606 17.148 16.581 31.076 34.35 44.578 53.942 5.829 8.458 11.926 18.073 17.843 26.285-3.941-9.868-7.087-19.983-8.51-30.403-8.383-61.394 20.851-125.375-14.613-182.539-13.049-21.035-31.79-38.873-52.775-52.278 43.556 16.558 73.339 46.936 95.685 87.341 10.846 19.611 20.425 41.022 33.94 59.028 14.962 19.934 32.721 38.575 48.822 57.626a357 357 0 0 1 25.437 33.788c-5.3-45.478-35.408-86.563-54.607-128.133z" style="fill:none;fill-opacity:.327843;stroke:#3d2b1f;stroke-width:2;stroke-dasharray:none;stroke-opacity:1"/><path d="M523.201 86.412c127.201 119.863 95.966 282.243-18.093 396.856-25.169 25.291-51.776 48.625-76.574 74.207-49.985 52.031-91.509 127.274-89.362 201.428a223.72 223.72 0 0 0 46.196 129.804l.57.063c-1.25-2.72-4.826-7.656-6.579-10.499a150 150 0 0 1-10.575-20.268c-22.869-53.161-23.615-111.248-3.136-165.201 19.853-52.301 53.465-94.832 92.882-133.871 16.191-16.037 34.587-32.079 50.019-48.055 53.716-55.611 97.006-123.486 105.243-201.849 5.065-48.193-.424-90.761-20.916-134.975-13.709-29.579-32.001-53.175-55.508-75.582-3.182-3.034-10.466-10.545-14.167-12.058z" style="fill:none;fill-opacity:.327843;stroke:#3d2b1f;stroke-width:2.5;stroke-dasharray:none;stroke-opacity:1"/><path d="M422.789 605.43c-6.243 8.312-12.565 16.16-18.745 24.608 30.934 35.257 52.47 49.702 70.477 95.208 0 0 .29-4.603-1.092-12.519-7.706-44.126-20.259-76.864-50.64-107.297ZM513.645 456.125c-1.888-12.834-8.403-22.688-14.621-34.175-13.498-24.936-24.396-47.616-30.028-75.495-6.812-33.719-1.608-64.11-1.026-97.743.333-19.239-4.108-43.554-11.181-61.328-4.845-13.943-18.547-36.233-29.022-46.573l-.033.312-.686-.791c14.833 19.69 21.644 28.442 27.898 53.732 11.45 52.028-7.307 99.722 1.505 151.286 6.188 36.215 30.218 68.982 45.318 101.956 3.267 7.134 6.479 14.359 9.796 21.488 0 0 2.59-9.204 2.08-12.669zM406.391 574.943c10.166-11.241 19.822-22.069 30.623-32.778a1652 1652 0 0 1 34.256-32.435c9.674-8.908 21.104-18.982 29.638-28.987-16.745-54.661-45.243-111.035-81.644-155.372-3.572-4.351-12.354-15.516-16.609-18.6 22.891 49.744 15.723 89.252-2.413 138.174-7.11 19.178-13.771 36.405-14.203 57.197-.594 28.5 6.905 48.732 20.352 72.801z" style="fill:none;fill-opacity:.327843;stroke:#3d2b1f;stroke-width:2;stroke-dasharray:none;stroke-opacity:1"/><path d="M350.195 507.703c1.234 36.269 13.699 67.197 33.804 96.883 6.34-8.812 13.065-17.383 19.515-26.124-24.556-38.952-28.014-75.803-13.389-119.711 6.378-19.149 14.292-36.511 18.327-56.461 5.083-25.136 4.41-43.399-1.068-68.278-4-13.242-9.505-29.28-17.654-40.404 12.603 26.1 14.15 39.058 11.587 68.005-1.326 4.691-1.787 10.048-3.074 14.704-12.132 44.312-42.362 81.497-76.926 110.731-55.748 47.15-99.445 97.904-112.996 171.639a249.48 249.48 0 0 0 38.838 186.534c30.067 43.421 63.318 72.244 111.056 95.32 4.799 2.32 22.751 10.774 27.248 11.587-.322-.693-28.241-16.101-32.567-18.954a294.8 294.8 0 0 1-67.192-61.769c-47.632-59.102-62.876-140.592-43.137-213.44 13.246-48.882 42.497-90.824 79.431-124.921 9.354-8.636 18.253-17.359 28.197-25.341z" style="opacity:1;fill:none;fill-opacity:.327843;stroke:#3d2b1f;stroke-width:2;stroke-dasharray:none;stroke-opacity:1"/></g></svg>